{"title":"The Way Back  2010 TS XViD DragonTrG","uid":6152801,"size":1767974890,"categoryP":"video","categoryS":"movies","magnet":"?xt=urn:btih:43c51ef24a6e4945078fd02294bab40471b5143f&amp;dn=The+Way+Back++2010+TS+XViD+DragonTrG&amp;tr=udp%3A%2F%2Ftracker.openbittorrent.com%3A80&amp;tr=udp%3A%2F%2Fopen.demonii.com%3A1337&amp;tr=udp%3A%2F%2Ftracker.coppersurfer.tk%3A6969&amp;tr=udp%3A%2F%2Fexodus.desync.com%3A6969","seeders":0,"leechers":1,"uploader":"SAFCukO09","files":4,"time":1296929851,"description":"Format : AVI\nFormat/Info : Audio Video Interleave\nFile size : 1.64 GiB\nDuration : 2h 5mn\nOverall bit rate : 1 872 Kbps\nWriting application : VirtualDubMod 1.5.10.3 | www.virtualdub-fr.org || (build 2550/release)\nWriting library : VirtualDubMod build 2550/release\n\nVideo\nID : 0\nFormat : MPEG-4 Visual\nFormat profile : Advanced Simple@L5\nFormat settings, BVOP : Yes\nFormat settings, QPel : No\nFormat settings, GMC : No warppoints\nFormat settings, Matrix : Custom\nCodec ID : XVID\nCodec ID/Hint : XviD\nDuration : 2h 5mn\nBit rate : 1 734 Kbps\nWidth : 672 pixels\nHeight : 284 pixels\nDisplay aspect ratio : 2.35:1\nFrame rate : 25.000 fps\nColor space : YUV\nChroma subsampling : 4:2:0\nBit depth : 8 bits\nScan type : Progressive\nBits/(Pixel*Frame) : 0.363\nStream size : 1.52 GiB (93%)\nWriting library : XviD 1.2.1 (UTC 2008-12-04)\n\nAudio\nID : 1\nFormat : MPEG Audio\nFormat version : Version 1\nFormat profile : Layer 3\nCodec ID : 55\nCodec ID/Hint : MP3\nDuration : 2h 5mn\nBit rate mode : Constant\nBit rate : 128 Kbps\nChannel(s) : 2 channels\nSampling rate : 44.1 KHz\nStream size : 115 MiB (7%)\nAlignment : Split accross interleaves\nInterleave, duration : 40 ms (1.00 video frame)\nInterleave, preload duration : 500 ms\n &lt;a href=&quot;\nhttp://www.imdb.com/title/tt1023114/&quot; rel=&quot;nofollow&quot; target=&quot;_NEW&quot;&gt;\nhttp://www.imdb.com/title/tt1023114/&lt;/a&gt;\n\n\nUsers: 7.6/10 (2,022 votes) 33 reviews | Critics: 80 reviews Metascore: 66/100 (based on 33 reviews from Metacritic.com)\n\nSiberian gulag escapees walk 4000 miles overland to freedom in India.\nDirector:\nPeter Weir\nWriters:\nKeith R. Clarke (screenplay), Slavomir Rawicz (novel), and 1 more credit Ã‚Â»\nStars:\nJim Sturgess, Ed Harris and Colin Farrell \n\nVideo Serenity - Thanks\nAudio Imagine - Thanks guys\n\nIncluded a sample as this is a big file and its a cam.Video wise its probs ok imo if you dont like cams though dont download.Filters wise i added abit more saturation and lowered the contrast a touch .The dark scenes are so so the light scenes are watchable...Really sellling it here :-) . Anyway download the sample and decide for yourself ....Enjoy !","torrent":{"xt":"urn:btih:43c51ef24a6e4945078fd02294bab40471b5143f","amp;dn":"The+Way+Back++2010+TS+XViD+DragonTrG","amp;tr":["udp%3A%2F%2Ftracker.openbittorrent.com%3A80","udp%3A%2F%2Fopen.demonii.com%3A1337","udp%3A%2F%2Ftracker.coppersurfer.tk%3A6969","udp%3A%2F%2Fexodus.desync.com%3A6969"],"infoHash":"43c51ef24a6e4945078fd02294bab40471b5143f","infoHashBuffer":{"type":"Buffer","data":[67,197,30,242,74,110,73,69,7,143,208,34,148,186,180,4,113,181,20,63]},"announce":[],"urlList":[]}}